<?xml version="1.0" encoding="UTF-8" standalone="no"?>
<svg
   xmlns:dc="http://purl.org/dc/elements/1.1/"
   xmlns:cc="http://creativecommons.org/ns#"
   xmlns:rdf="http://www.w3.org/1999/02/22-rdf-syntax-ns#"
   xmlns:svg="http://www.w3.org/2000/svg"
   xmlns="http://www.w3.org/2000/svg"
   xmlns:xlink="http://www.w3.org/1999/xlink"
   xmlns:sodipodi="http://sodipodi.sourceforge.net/DTD/sodipodi-0.dtd"
   xmlns:inkscape="http://www.inkscape.org/namespaces/inkscape"
   width="472.96866mm"
   height="276.81631mm"
   viewBox="0 0 472.96865 276.81631"
   version="1.1"
   id="svg8"
   inkscape:version="1.0.2 (e86c870879, 2021-01-15, custom)"
   sodipodi:docname="logo.svg">
  <defs
     id="defs2">
    <linearGradient
       inkscape:collect="always"
       xlink:href="#linearGradient4628"
       id="linearGradient4742"
       gradientUnits="userSpaceOnUse"
       x1="2114.467"
       y1="1565.5459"
       x2="2110.7424"
       y2="1575.4369"
       gradientTransform="translate(0,245.09796)" />
    <linearGradient
       inkscape:collect="always"
       id="linearGradient4628">
      <stop
         style="stop-color:#fbe1bc;stop-opacity:1"
         offset="0"
         id="stop4624" />
      <stop
         style="stop-color:#e5f1f7;stop-opacity:1"
         offset="1"
         id="stop4626" />
    </linearGradient>
  </defs>
  <sodipodi:namedview
     id="base"
     pagecolor="#ffffff"
     bordercolor="#666666"
     borderopacity="1.0"
     inkscape:pageopacity="0.0"
     inkscape:pageshadow="2"
     inkscape:zoom="0.49497475"
     inkscape:cx="233.00318"
     inkscape:cy="386.95282"
     inkscape:document-units="mm"
     inkscape:current-layer="layer1"
     inkscape:document-rotation="0"
     showgrid="false"
     inkscape:window-width="3440"
     inkscape:window-height="1411"
     inkscape:window-x="0"
     inkscape:window-y="343"
     inkscape:window-maximized="1"
     inkscape:snap-global="false"
     fit-margin-top="0"
     fit-margin-left="0"
     fit-margin-right="0"
     fit-margin-bottom="0" />
  <metadata
     id="metadata5">
    <rdf:RDF>
      <cc:Work
         rdf:about="">
        <dc:format>image/svg+xml</dc:format>
        <dc:type
           rdf:resource="http://purl.org/dc/dcmitype/StillImage" />
        <dc:title></dc:title>
      </cc:Work>
    </rdf:RDF>
  </metadata>
  <g
     inkscape:label="Layer 1"
     inkscape:groupmode="layer"
     id="layer1"
     transform="translate(75.53917,-21.620758)">
    <use
       x="0"
       y="0"
       xlink:href="#rect988"
       id="use990"
       transform="translate(-307.64174)"
       width="100%"
       height="100%"
       inkscape:export-xdpi="107.41"
       inkscape:export-ydpi="107.41" />
    <rect
       style="fill:#c4dde4;fill-opacity:1;stroke:#09385d;stroke-width:6.5;stroke-miterlimit:4;stroke-dasharray:none;stroke-opacity:1"
       id="rect988"
       width="158.8269"
       height="212.63892"
       x="235.35257"
       y="24.870758"
       ry="6.5170636"
       inkscape:export-xdpi="107.41"
       inkscape:export-ydpi="107.41" />
    <g
       id="g963"
       transform="translate(-49.445816,-20.574455)"
       inkscape:export-xdpi="107.41"
       inkscape:export-ydpi="107.41">
      <circle
         style="fill:#535353;fill-opacity:1;stroke-width:0.264583"
         id="circle949"
         cx="50.204723"
         cy="73.73951"
         r="12.149752" />
      <rect
         style="fill:#535353;fill-opacity:1;stroke-width:0.268152"
         id="rect951"
         width="10.203582"
         height="61.356407"
         x="63.040829"
         y="91.706703"
         ry="4.1462116" />
      <rect
         style="fill:#535353;fill-opacity:1;stroke-width:0.268152"
         id="rect953"
         width="10.203582"
         height="61.356407"
         x="27.694201"
         y="91.706703"
         ry="4.1462116" />
      <path
         id="path955"
         style="fill:#535353;fill-opacity:1;stroke:none;stroke-width:1.63534;stroke-miterlimit:4;stroke-dasharray:none;stroke-opacity:1"
         d="m 41.428239,90.489574 c 6.386671,-1.728969 12.017603,-1.018756 17.552937,0 3.804125,0.700134 7.31737,3.902449 6.943486,8.698727 l -2.570634,32.976769 c -0.373849,4.79582 -2.590035,8.69874 -5.80804,8.69874 H 42.863426 c -3.217655,0 -5.433707,-3.89669 -5.808041,-8.69874 L 34.484752,99.188301 c -0.373884,-4.796278 3.187154,-7.681831 6.943487,-8.698727 z"
         sodipodi:nodetypes="sssssssss" />
      <path
         style="color:#000000;font-style:normal;font-variant:normal;font-weight:normal;font-stretch:normal;font-size:medium;line-height:normal;font-family:sans-serif;font-variant-ligatures:normal;font-variant-position:normal;font-variant-caps:normal;font-variant-numeric:normal;font-variant-alternates:normal;font-variant-east-asian:normal;font-feature-settings:normal;font-variation-settings:normal;text-indent:0;text-align:start;text-decoration:none;text-decoration-line:none;text-decoration-style:solid;text-decoration-color:#000000;letter-spacing:normal;word-spacing:normal;text-transform:none;writing-mode:lr-tb;direction:ltr;text-orientation:mixed;dominant-baseline:auto;baseline-shift:baseline;text-anchor:start;white-space:normal;shape-padding:0;shape-margin:0;inline-size:0;clip-rule:nonzero;display:inline;overflow:visible;visibility:visible;opacity:1;isolation:auto;mix-blend-mode:normal;color-interpolation:sRGB;color-interpolation-filters:linearRGB;solid-color:#000000;solid-opacity:1;vector-effect:none;fill:#c4dde4;fill-opacity:1;fill-rule:nonzero;stroke:none;stroke-width:0.990635;stroke-linecap:butt;stroke-linejoin:miter;stroke-miterlimit:4;stroke-dasharray:none;stroke-dashoffset:0;stroke-opacity:1;color-rendering:auto;image-rendering:auto;shape-rendering:auto;text-rendering:auto;enable-background:accumulate;stop-color:#000000;stop-opacity:1"
         d="m 65.197134,103.42024 -2.571005,29.63821 c -0.175215,2.02015 -0.786978,3.82951 -1.681182,5.09163 -0.894202,1.26212 -2.025575,1.98328 -3.398832,1.98328 H 42.864036 c -1.373433,0 -2.506599,-0.7199 -3.400654,-1.98123 -0.894058,-1.26132 -1.505713,-3.07058 -1.681182,-5.09368 l -2.571006,-29.63821 c -0.327651,-3.777642 -1.873373,-4.683588 -1.453255,0.16015 l 2.571004,29.63821 c 0.198863,2.29279 0.881018,4.39133 1.992984,5.96008 1.111968,1.56874 2.697889,2.59918 4.542109,2.59918 h 14.682079 c 1.844746,0 3.430254,-1.03191 4.542109,-2.60125 1.111853,-1.56931 1.794351,-3.66787 1.992983,-5.95801 l 2.571006,-29.63821 c 0.420117,-4.843738 -1.127428,-3.937792 -1.455079,-0.16015 z"
         id="path957"
         sodipodi:nodetypes="ccssssccccssssccc" />
      <rect
         style="fill:#535353;fill-opacity:1;stroke-width:0.281241"
         id="rect959"
         width="10.203582"
         height="67.492241"
         x="39.20739"
         y="129.67754"
         ry="4.5608459" />
      <rect
         style="fill:#535353;fill-opacity:1;stroke-width:0.281241"
         id="rect961"
         width="10.203582"
         height="67.492241"
         x="51.527641"
         y="129.67754"
         ry="4.5608459" />
    </g>
    <g
       id="g979"
       transform="translate(-85.046436,-1.5858582)"
       inkscape:export-xdpi="107.41"
       inkscape:export-ydpi="107.41">
      <circle
         style="fill:#535353;fill-opacity:1;stroke-width:0.264583"
         id="circle965"
         cx="50.204723"
         cy="73.73951"
         r="12.149752" />
      <rect
         style="fill:#535353;fill-opacity:1;stroke-width:0.268152"
         id="rect967"
         width="10.203582"
         height="61.356407"
         x="63.040829"
         y="91.706703"
         ry="4.1462116" />
      <rect
         style="fill:#535353;fill-opacity:1;stroke-width:0.268152"
         id="rect969"
         width="10.203582"
         height="61.356407"
         x="27.694201"
         y="91.706703"
         ry="4.1462116" />
      <path
         id="path971"
         style="fill:#535353;fill-opacity:1;stroke:none;stroke-width:1.63534;stroke-miterlimit:4;stroke-dasharray:none;stroke-opacity:1"
         d="m 41.428239,90.489574 c 6.386671,-1.728969 12.017603,-1.018756 17.552937,0 3.804125,0.700134 7.31737,3.902449 6.943486,8.698727 l -2.570634,32.976769 c -0.373849,4.79582 -2.590035,8.69874 -5.80804,8.69874 H 42.863426 c -3.217655,0 -5.433707,-3.89669 -5.808041,-8.69874 L 34.484752,99.188301 c -0.373884,-4.796278 3.187154,-7.681831 6.943487,-8.698727 z"
         sodipodi:nodetypes="sssssssss" />
      <path
         style="color:#000000;font-style:normal;font-variant:normal;font-weight:normal;font-stretch:normal;font-size:medium;line-height:normal;font-family:sans-serif;font-variant-ligatures:normal;font-variant-position:normal;font-variant-caps:normal;font-variant-numeric:normal;font-variant-alternates:normal;font-variant-east-asian:normal;font-feature-settings:normal;font-variation-settings:normal;text-indent:0;text-align:start;text-decoration:none;text-decoration-line:none;text-decoration-style:solid;text-decoration-color:#000000;letter-spacing:normal;word-spacing:normal;text-transform:none;writing-mode:lr-tb;direction:ltr;text-orientation:mixed;dominant-baseline:auto;baseline-shift:baseline;text-anchor:start;white-space:normal;shape-padding:0;shape-margin:0;inline-size:0;clip-rule:nonzero;display:inline;overflow:visible;visibility:visible;opacity:1;isolation:auto;mix-blend-mode:normal;color-interpolation:sRGB;color-interpolation-filters:linearRGB;solid-color:#000000;solid-opacity:1;vector-effect:none;fill:#c4dde4;fill-opacity:1;fill-rule:nonzero;stroke:none;stroke-width:0.990635;stroke-linecap:butt;stroke-linejoin:miter;stroke-miterlimit:4;stroke-dasharray:none;stroke-dashoffset:0;stroke-opacity:1;color-rendering:auto;image-rendering:auto;shape-rendering:auto;text-rendering:auto;enable-background:accumulate;stop-color:#000000;stop-opacity:1"
         d="m 65.197134,103.42024 -2.571005,29.63821 c -0.175215,2.02015 -0.786978,3.82951 -1.681182,5.09163 -0.894202,1.26212 -2.025575,1.98328 -3.398832,1.98328 H 42.864036 c -1.373433,0 -2.506599,-0.7199 -3.400654,-1.98123 -0.894058,-1.26132 -1.505713,-3.07058 -1.681182,-5.09368 l -2.571006,-29.63821 c -0.327651,-3.777642 -1.873373,-4.683588 -1.453255,0.16015 l 2.571004,29.63821 c 0.198863,2.29279 0.881018,4.39133 1.992984,5.96008 1.111968,1.56874 2.697889,2.59918 4.542109,2.59918 h 14.682079 c 1.844746,0 3.430254,-1.03191 4.542109,-2.60125 1.111853,-1.56931 1.794351,-3.66787 1.992983,-5.95801 l 2.571006,-29.63821 c 0.420117,-4.843738 -1.127428,-3.937792 -1.455079,-0.16015 z"
         id="path973"
         sodipodi:nodetypes="ccssssccccssssccc" />
      <rect
         style="fill:#535353;fill-opacity:1;stroke-width:0.281241"
         id="rect975"
         width="10.203582"
         height="67.492241"
         x="39.20739"
         y="129.67754"
         ry="4.5608459" />
      <rect
         style="fill:#535353;fill-opacity:1;stroke-width:0.281241"
         id="rect977"
         width="10.203582"
         height="67.492241"
         x="51.527641"
         y="129.67754"
         ry="4.5608459" />
    </g>
    <g
       id="g947"
       transform="translate(0.44454563,-13.38008)"
       inkscape:export-xdpi="107.41"
       inkscape:export-ydpi="107.41">
      <circle
         style="fill:#535353;fill-opacity:1;stroke-width:0.264583"
         id="circle933"
         cx="50.204723"
         cy="73.73951"
         r="12.149752" />
      <rect
         style="fill:#535353;fill-opacity:1;stroke-width:0.268152"
         id="rect935"
         width="10.203582"
         height="61.356407"
         x="63.040829"
         y="91.706703"
         ry="4.1462116" />
      <rect
         style="fill:#535353;fill-opacity:1;stroke-width:0.268152"
         id="rect937"
         width="10.203582"
         height="61.356407"
         x="27.694201"
         y="91.706703"
         ry="4.1462116" />
      <path
         id="path939"
         style="fill:#535353;fill-opacity:1;stroke:none;stroke-width:1.63534;stroke-miterlimit:4;stroke-dasharray:none;stroke-opacity:1"
         d="m 41.428239,90.489574 c 6.386671,-1.728969 12.017603,-1.018756 17.552937,0 3.804125,0.700134 7.31737,3.902449 6.943486,8.698727 l -2.570634,32.976769 c -0.373849,4.79582 -2.590035,8.69874 -5.80804,8.69874 H 42.863426 c -3.217655,0 -5.433707,-3.89669 -5.808041,-8.69874 L 34.484752,99.188301 c -0.373884,-4.796278 3.187154,-7.681831 6.943487,-8.698727 z"
         sodipodi:nodetypes="sssssssss" />
      <path
         style="color:#000000;font-style:normal;font-variant:normal;font-weight:normal;font-stretch:normal;font-size:medium;line-height:normal;font-family:sans-serif;font-variant-ligatures:normal;font-variant-position:normal;font-variant-caps:normal;font-variant-numeric:normal;font-variant-alternates:normal;font-variant-east-asian:normal;font-feature-settings:normal;font-variation-settings:normal;text-indent:0;text-align:start;text-decoration:none;text-decoration-line:none;text-decoration-style:solid;text-decoration-color:#000000;letter-spacing:normal;word-spacing:normal;text-transform:none;writing-mode:lr-tb;direction:ltr;text-orientation:mixed;dominant-baseline:auto;baseline-shift:baseline;text-anchor:start;white-space:normal;shape-padding:0;shape-margin:0;inline-size:0;clip-rule:nonzero;display:inline;overflow:visible;visibility:visible;opacity:1;isolation:auto;mix-blend-mode:normal;color-interpolation:sRGB;color-interpolation-filters:linearRGB;solid-color:#000000;solid-opacity:1;vector-effect:none;fill:#c4dde4;fill-opacity:1;fill-rule:nonzero;stroke:none;stroke-width:0.990635;stroke-linecap:butt;stroke-linejoin:miter;stroke-miterlimit:4;stroke-dasharray:none;stroke-dashoffset:0;stroke-opacity:1;color-rendering:auto;image-rendering:auto;shape-rendering:auto;text-rendering:auto;enable-background:accumulate;stop-color:#000000;stop-opacity:1"
         d="m 65.197134,103.42024 -2.571005,29.63821 c -0.175215,2.02015 -0.786978,3.82951 -1.681182,5.09163 -0.894202,1.26212 -2.025575,1.98328 -3.398832,1.98328 H 42.864036 c -1.373433,0 -2.506599,-0.7199 -3.400654,-1.98123 -0.894058,-1.26132 -1.505713,-3.07058 -1.681182,-5.09368 l -2.571006,-29.63821 c -0.327651,-3.777642 -1.873373,-4.683588 -1.453255,0.16015 l 2.571004,29.63821 c 0.198863,2.29279 0.881018,4.39133 1.992984,5.96008 1.111968,1.56874 2.697889,2.59918 4.542109,2.59918 h 14.682079 c 1.844746,0 3.430254,-1.03191 4.542109,-2.60125 1.111853,-1.56931 1.794351,-3.66787 1.992983,-5.95801 l 2.571006,-29.63821 c 0.420117,-4.843738 -1.127428,-3.937792 -1.455079,-0.16015 z"
         id="path941"
         sodipodi:nodetypes="ccssssccccssssccc" />
      <rect
         style="fill:#535353;fill-opacity:1;stroke-width:0.281241"
         id="rect943"
         width="10.203582"
         height="67.492241"
         x="39.20739"
         y="129.67754"
         ry="4.5608459" />
      <rect
         style="fill:#535353;fill-opacity:1;stroke-width:0.281241"
         id="rect945"
         width="10.203582"
         height="67.492241"
         x="51.527641"
         y="129.67754"
         ry="4.5608459" />
    </g>
    <g
       id="g899"
       transform="translate(-37.041669,1.0583333)"
       inkscape:export-xdpi="107.41"
       inkscape:export-ydpi="107.41">
      <circle
         style="fill:#ca5f00;fill-opacity:1;stroke-width:0.264583"
         id="path833"
         cx="50.204723"
         cy="73.73951"
         r="12.149752" />
      <rect
         style="fill:#ca5f00;fill-opacity:1;stroke-width:0.268152"
         id="rect856"
         width="10.203582"
         height="61.356407"
         x="63.040829"
         y="91.706703"
         ry="4.1462116" />
      <rect
         style="fill:#ca5f00;fill-opacity:1;stroke-width:0.268152"
         id="rect838"
         width="10.203582"
         height="61.356407"
         x="27.694201"
         y="91.706703"
         ry="4.1462116" />
      <path
         id="rect835"
         style="fill:#ca5f00;fill-opacity:1;stroke:none;stroke-width:1.63534;stroke-miterlimit:4;stroke-dasharray:none;stroke-opacity:1"
         d="m 41.428239,90.489574 c 6.386671,-1.728969 12.017603,-1.018756 17.552937,0 3.804125,0.700134 7.31737,3.902449 6.943486,8.698727 l -2.570634,32.976769 c -0.373849,4.79582 -2.590035,8.69874 -5.80804,8.69874 H 42.863426 c -3.217655,0 -5.433707,-3.89669 -5.808041,-8.69874 L 34.484752,99.188301 c -0.373884,-4.796278 3.187154,-7.681831 6.943487,-8.698727 z"
         sodipodi:nodetypes="sssssssss" />
      <path
         style="color:#000000;font-style:normal;font-variant:normal;font-weight:normal;font-stretch:normal;font-size:medium;line-height:normal;font-family:sans-serif;font-variant-ligatures:normal;font-variant-position:normal;font-variant-caps:normal;font-variant-numeric:normal;font-variant-alternates:normal;font-variant-east-asian:normal;font-feature-settings:normal;font-variation-settings:normal;text-indent:0;text-align:start;text-decoration:none;text-decoration-line:none;text-decoration-style:solid;text-decoration-color:#000000;letter-spacing:normal;word-spacing:normal;text-transform:none;writing-mode:lr-tb;direction:ltr;text-orientation:mixed;dominant-baseline:auto;baseline-shift:baseline;text-anchor:start;white-space:normal;shape-padding:0;shape-margin:0;inline-size:0;clip-rule:nonzero;display:inline;overflow:visible;visibility:visible;opacity:1;isolation:auto;mix-blend-mode:normal;color-interpolation:sRGB;color-interpolation-filters:linearRGB;solid-color:#000000;solid-opacity:1;vector-effect:none;fill:#c4dde4;fill-opacity:1;fill-rule:nonzero;stroke:none;stroke-width:0.990635;stroke-linecap:butt;stroke-linejoin:miter;stroke-miterlimit:4;stroke-dasharray:none;stroke-dashoffset:0;stroke-opacity:1;color-rendering:auto;image-rendering:auto;shape-rendering:auto;text-rendering:auto;enable-background:accumulate;stop-color:#000000;stop-opacity:1"
         d="m 65.197134,103.42024 -2.571005,29.63821 c -0.175215,2.02015 -0.786978,3.82951 -1.681182,5.09163 -0.894202,1.26212 -2.025575,1.98328 -3.398832,1.98328 H 42.864036 c -1.373433,0 -2.506599,-0.7199 -3.400654,-1.98123 -0.894058,-1.26132 -1.505713,-3.07058 -1.681182,-5.09368 l -2.571006,-29.63821 c -0.327651,-3.777642 -1.873373,-4.683588 -1.453255,0.16015 l 2.571004,29.63821 c 0.198863,2.29279 0.881018,4.39133 1.992984,5.96008 1.111968,1.56874 2.697889,2.59918 4.542109,2.59918 h 14.682079 c 1.844746,0 3.430254,-1.03191 4.542109,-2.60125 1.111853,-1.56931 1.794351,-3.66787 1.992983,-5.95801 l 2.571006,-29.63821 c 0.420117,-4.843738 -1.127428,-3.937792 -1.455079,-0.16015 z"
         id="path848"
         sodipodi:nodetypes="ccssssccccssssccc" />
      <rect
         style="fill:#ca5f00;fill-opacity:1;stroke-width:0.281241"
         id="rect864"
         width="10.203582"
         height="67.492241"
         x="39.20739"
         y="129.67754"
         ry="4.5608459" />
      <rect
         style="fill:#ca5f00;fill-opacity:1;stroke-width:0.281241"
         id="rect866"
         width="10.203582"
         height="67.492241"
         x="51.527641"
         y="129.67754"
         ry="4.5608459" />
    </g>
    <g
       id="g915"
       transform="translate(-62.008437,13.733698)"
       inkscape:export-xdpi="107.41"
       inkscape:export-ydpi="107.41">
      <circle
         style="fill:#000000;fill-opacity:1;stroke-width:0.264583"
         id="circle901"
         cx="50.204723"
         cy="73.73951"
         r="12.149752" />
      <rect
         style="fill:#000000;fill-opacity:1;stroke-width:0.268152"
         id="rect903"
         width="10.203582"
         height="61.356407"
         x="63.040829"
         y="91.706703"
         ry="4.1462116" />
      <rect
         style="fill:#000000;fill-opacity:1;stroke-width:0.268152"
         id="rect905"
         width="10.203582"
         height="61.356407"
         x="27.694201"
         y="91.706703"
         ry="4.1462116" />
      <path
         id="path907"
         style="fill:#000000;fill-opacity:1;stroke:none;stroke-width:1.63534;stroke-miterlimit:4;stroke-dasharray:none;stroke-opacity:1"
         d="m 41.428239,90.489574 c 6.386671,-1.728969 12.017603,-1.018756 17.552937,0 3.804125,0.700134 7.31737,3.902449 6.943486,8.698727 l -2.570634,32.976769 c -0.373849,4.79582 -2.590035,8.69874 -5.80804,8.69874 H 42.863426 c -3.217655,0 -5.433707,-3.89669 -5.808041,-8.69874 L 34.484752,99.188301 c -0.373884,-4.796278 3.187154,-7.681831 6.943487,-8.698727 z"
         sodipodi:nodetypes="sssssssss" />
      <path
         style="color:#000000;font-style:normal;font-variant:normal;font-weight:normal;font-stretch:normal;font-size:medium;line-height:normal;font-family:sans-serif;font-variant-ligatures:normal;font-variant-position:normal;font-variant-caps:normal;font-variant-numeric:normal;font-variant-alternates:normal;font-variant-east-asian:normal;font-feature-settings:normal;font-variation-settings:normal;text-indent:0;text-align:start;text-decoration:none;text-decoration-line:none;text-decoration-style:solid;text-decoration-color:#000000;letter-spacing:normal;word-spacing:normal;text-transform:none;writing-mode:lr-tb;direction:ltr;text-orientation:mixed;dominant-baseline:auto;baseline-shift:baseline;text-anchor:start;white-space:normal;shape-padding:0;shape-margin:0;inline-size:0;clip-rule:nonzero;display:inline;overflow:visible;visibility:visible;opacity:1;isolation:auto;mix-blend-mode:normal;color-interpolation:sRGB;color-interpolation-filters:linearRGB;solid-color:#000000;solid-opacity:1;vector-effect:none;fill:#c4dde4;fill-opacity:1;fill-rule:nonzero;stroke:none;stroke-width:0.990635;stroke-linecap:butt;stroke-linejoin:miter;stroke-miterlimit:4;stroke-dasharray:none;stroke-dashoffset:0;stroke-opacity:1;color-rendering:auto;image-rendering:auto;shape-rendering:auto;text-rendering:auto;enable-background:accumulate;stop-color:#000000;stop-opacity:1"
         d="m 65.197134,103.42024 -2.571005,29.63821 c -0.175215,2.02015 -0.786978,3.82951 -1.681182,5.09163 -0.894202,1.26212 -2.025575,1.98328 -3.398832,1.98328 H 42.864036 c -1.373433,0 -2.506599,-0.7199 -3.400654,-1.98123 -0.894058,-1.26132 -1.505713,-3.07058 -1.681182,-5.09368 l -2.571006,-29.63821 c -0.327651,-3.777642 -1.873373,-4.683588 -1.453255,0.16015 l 2.571004,29.63821 c 0.198863,2.29279 0.881018,4.39133 1.992984,5.96008 1.111968,1.56874 2.697889,2.59918 4.542109,2.59918 h 14.682079 c 1.844746,0 3.430254,-1.03191 4.542109,-2.60125 1.111853,-1.56931 1.794351,-3.66787 1.992983,-5.95801 l 2.571006,-29.63821 c 0.420117,-4.843738 -1.127428,-3.937792 -1.455079,-0.16015 z"
         id="path909"
         sodipodi:nodetypes="ccssssccccssssccc" />
      <rect
         style="fill:#000000;fill-opacity:1;stroke-width:0.281241"
         id="rect911"
         width="10.203582"
         height="67.492241"
         x="39.20739"
         y="129.67754"
         ry="4.5608459" />
      <rect
         style="fill:#000000;fill-opacity:1;stroke-width:0.281241"
         id="rect913"
         width="10.203582"
         height="67.492241"
         x="51.527641"
         y="129.67754"
         ry="4.5608459" />
    </g>
    <g
       id="g931"
       transform="translate(-15.324905,24.443908)"
       inkscape:export-xdpi="107.41"
       inkscape:export-ydpi="107.41">
      <circle
         style="fill:#000000;fill-opacity:1;stroke-width:0.264583"
         id="circle917"
         cx="50.204723"
         cy="73.73951"
         r="12.149752" />
      <rect
         style="fill:#000000;fill-opacity:1;stroke-width:0.268152"
         id="rect919"
         width="10.203582"
         height="61.356407"
         x="63.040829"
         y="91.706703"
         ry="4.1462116" />
      <rect
         style="fill:#000000;fill-opacity:1;stroke-width:0.268152"
         id="rect921"
         width="10.203582"
         height="61.356407"
         x="27.694201"
         y="91.706703"
         ry="4.1462116" />
      <path
         id="path923"
         style="fill:#000000;fill-opacity:1;stroke:none;stroke-width:1.63534;stroke-miterlimit:4;stroke-dasharray:none;stroke-opacity:1"
         d="m 41.428239,90.489574 c 6.386671,-1.728969 12.017603,-1.018756 17.552937,0 3.804125,0.700134 7.31737,3.902449 6.943486,8.698727 l -2.570634,32.976769 c -0.373849,4.79582 -2.590035,8.69874 -5.80804,8.69874 H 42.863426 c -3.217655,0 -5.433707,-3.89669 -5.808041,-8.69874 L 34.484752,99.188301 c -0.373884,-4.796278 3.187154,-7.681831 6.943487,-8.698727 z"
         sodipodi:nodetypes="sssssssss" />
      <path
         style="color:#000000;font-style:normal;font-variant:normal;font-weight:normal;font-stretch:normal;font-size:medium;line-height:normal;font-family:sans-serif;font-variant-ligatures:normal;font-variant-position:normal;font-variant-caps:normal;font-variant-numeric:normal;font-variant-alternates:normal;font-variant-east-asian:normal;font-feature-settings:normal;font-variation-settings:normal;text-indent:0;text-align:start;text-decoration:none;text-decoration-line:none;text-decoration-style:solid;text-decoration-color:#000000;letter-spacing:normal;word-spacing:normal;text-transform:none;writing-mode:lr-tb;direction:ltr;text-orientation:mixed;dominant-baseline:auto;baseline-shift:baseline;text-anchor:start;white-space:normal;shape-padding:0;shape-margin:0;inline-size:0;clip-rule:nonzero;display:inline;overflow:visible;visibility:visible;opacity:1;isolation:auto;mix-blend-mode:normal;color-interpolation:sRGB;color-interpolation-filters:linearRGB;solid-color:#000000;solid-opacity:1;vector-effect:none;fill:#c4dde4;fill-opacity:1;fill-rule:nonzero;stroke:none;stroke-width:0.990635;stroke-linecap:butt;stroke-linejoin:miter;stroke-miterlimit:4;stroke-dasharray:none;stroke-dashoffset:0;stroke-opacity:1;color-rendering:auto;image-rendering:auto;shape-rendering:auto;text-rendering:auto;enable-background:accumulate;stop-color:#000000;stop-opacity:1"
         d="m 65.197134,103.42024 -2.571005,29.63821 c -0.175215,2.02015 -0.786978,3.82951 -1.681182,5.09163 -0.894202,1.26212 -2.025575,1.98328 -3.398832,1.98328 H 42.864036 c -1.373433,0 -2.506599,-0.7199 -3.400654,-1.98123 -0.894058,-1.26132 -1.505713,-3.07058 -1.681182,-5.09368 l -2.571006,-29.63821 c -0.327651,-3.777642 -1.873373,-4.683588 -1.453255,0.16015 l 2.571004,29.63821 c 0.198863,2.29279 0.881018,4.39133 1.992984,5.96008 1.111968,1.56874 2.697889,2.59918 4.542109,2.59918 h 14.682079 c 1.844746,0 3.430254,-1.03191 4.542109,-2.60125 1.111853,-1.56931 1.794351,-3.66787 1.992983,-5.95801 l 2.571006,-29.63821 c 0.420117,-4.843738 -1.127428,-3.937792 -1.455079,-0.16015 z"
         id="path925"
         sodipodi:nodetypes="ccssssccccssssccc" />
      <rect
         style="fill:#000000;fill-opacity:1;stroke-width:0.281241"
         id="rect927"
         width="10.203582"
         height="67.492241"
         x="39.20739"
         y="129.67754"
         ry="4.5608459" />
      <rect
         style="fill:#000000;fill-opacity:1;stroke-width:0.281241"
         id="rect929"
         width="10.203582"
         height="67.492241"
         x="51.527641"
         y="129.67754"
         ry="4.5608459" />
    </g>
    <use
       x="0"
       y="0"
       xlink:href="#g899"
       id="use981"
       transform="translate(301.33842,-1.0583333)"
       width="100%"
       height="100%"
       inkscape:export-xdpi="107.41"
       inkscape:export-ydpi="107.41" />
    <path
       id="rect992"
       style="fill:#ca5f00;fill-opacity:1;stroke:none;stroke-width:4.40365;stroke-miterlimit:4;stroke-dasharray:none;stroke-opacity:1"
       d="m 164.49536,60.674212 v 39.039386 h -55.8398 v 62.953272 h 55.8398 v 39.03934 l 24.37016,-35.2574 24.36921,-35.25743 -24.36921,-35.259732 z"
       inkscape:export-xdpi="107.41"
       inkscape:export-ydpi="107.41" />
    <g
       id="g1903"
       transform="matrix(0.36115965,0,0,0.36115965,16.399984,66.1166)"
       inkscape:export-xdpi="107.41"
       inkscape:export-ydpi="107.41">
      <path
         id="ellipse4696"
         style="fill:#09385d;fill-opacity:1;stroke:none;stroke-width:0.0954334;stroke-linecap:round;stroke-linejoin:round;stroke-dashoffset:7.63465;paint-order:stroke fill markers"
         inkscape:transform-center-x="-0.57327218"
         inkscape:transform-center-y="-0.017575481"
         d="m 345.50745,120.3082 a 5.1699252,5.1699252 0 0 0 -0.077,0.001 5.1699252,5.1699252 0 0 0 -5.00745,5.93659 c -5.18058,-0.32131 -10.46207,-0.62143 -14.95619,-0.64802 -9.23653,-0.0547 -15.11487,1.04074 -9.79217,5.45393 7.6033,6.3041 -7.56419,15.78191 -15.82229,41.83931 -9.6875,30.5677 3.01747,10.79965 4.94957,20.20755 3.0653,14.9257 10.66529,40.30026 35.30689,46.72686 5.8347,1.5217 -17.95749,-18.42636 -6.90139,-15.58406 15.4963,3.9837 32.93223,3.80876 43.05474,-2.03554 44.62099,-25.76189 36.15631,-98.21691 31.76602,-78.13321 -1.46216,6.68883 -2.93703,9.56918 -4.73408,10.00404 -4.98234,-9.8665 -11.55962,-17.10004 -19.53525,-22.17539 -10.56459,-6.7229 -23.19023,-9.70043 -37.56463,-11.55123 a 5.1699252,5.1699252 0 0 0 -0.68678,-0.0419 z m -45.92174,13.84722 a 5.8918585,7.945249 58.127646 0 0 -5.10202,1.526 5.8918585,7.945249 58.127646 0 0 -3.63595,9.19892 5.8918585,7.945249 58.127646 0 0 9.85831,0.80822 5.8918585,7.945249 58.127646 0 0 3.63596,-9.19892 5.8918585,7.945249 58.127646 0 0 -4.7563,-2.33422 z m -4.01939,24.33546 a 3.0021334,4.1407183 33.246665 0 0 -0.0786,5.3e-4 3.0021334,4.1407183 33.246665 0 0 -3.38687,2.12132 3.0021334,4.1407183 33.246665 0 0 0.14779,5.14284 3.0021334,4.1407183 33.246665 0 0 4.78472,-1.71721 3.0021334,4.1407183 33.246665 0 0 -0.14779,-5.14336 3.0021334,4.1407183 33.246665 0 0 -1.3193,-0.4041 z m -15.95303,0.73639 a 3.3606449,5.8362463 27.084953 0 0 -4.37338,3.28507 3.3606449,5.8362463 27.084953 0 0 -0.33331,7.11119 3.3606449,5.8362463 27.084953 0 0 5.64926,-2.84788 3.3606449,5.8362463 27.084953 0 0 0.33383,-7.1112 3.3606449,5.8362463 27.084953 0 0 -1.2764,-0.43718 z m 157.42088,35.449 a 2.4509263,3.4041016 46.962392 0 0 -2.33786,0.89452 2.4509263,3.4041016 46.962392 0 0 -1.27433,4.14858 2.4509263,3.4041016 46.962392 0 0 4.04368,-0.0703 2.4509263,3.4041016 46.962392 0 0 1.27433,-4.14806 2.4509263,3.4041016 46.962392 0 0 -1.70582,-0.82476 z m -8.45891,21.59971 a 3.3409284,4.5618484 54.580667 0 0 -2.83858,0.89091 3.3409284,4.5618484 54.580667 0 0 -2.17922,5.34747 3.3409284,4.5618484 54.580667 0 0 5.51286,0.46044 3.3409284,4.5618484 54.580667 0 0 2.17919,-5.34748 3.3409284,4.5618484 54.580667 0 0 -2.67425,-1.35134 z m -35.4175,5.7149 a 2.8771696,3.8799013 64.465931 0 0 -2.05515,0.49196 2.8771696,3.8799013 64.465931 0 0 -2.26086,4.26847 2.8771696,3.8799013 64.465931 0 0 4.74133,0.92398 2.8771696,3.8799013 64.465931 0 0 2.26084,-4.26848 2.8771696,3.8799013 64.465931 0 0 -2.68616,-1.41593 z m 17.46613,7.63519 a 3.8332925,5.1692463 70.211778 0 0 -2.2257,0.40205 3.8332925,5.1692463 70.211778 0 0 -3.56619,5.35678 3.8332925,5.1692463 70.211778 0 0 6.16191,1.85725 3.8332925,5.1692463 70.211778 0 0 3.56618,-5.3573 3.8332925,5.1692463 70.211778 0 0 -3.9362,-2.25878 z m -57.45851,3.94033 a 5.9701681,4.3916517 8.2982375 0 0 -5.37589,3.59255 5.9701681,4.3916517 8.2982375 0 0 5.30975,5.1878 5.9701681,4.3916517 8.2982375 0 0 6.51226,-3.51245 5.9701681,4.3916517 8.2982375 0 0 -5.30975,-5.18832 5.9701681,4.3916517 8.2982375 0 0 -1.13637,-0.0796 z m 37.56618,6.35413 a 5.8918583,7.945249 83.154231 0 0 -1.29397,0.0765 5.8918583,7.945249 83.154231 0 0 -7.18613,6.797 5.8918583,7.945249 83.154231 0 0 8.5907,4.90254 5.8918583,7.945249 83.154231 0 0 7.18611,-6.797 5.8918583,7.945249 83.154231 0 0 -7.29671,-4.97903 z" />
      <g
         id="g1835"
         transform="translate(-1734.8118,-1617.8763)">
        <path
           id="path4704"
           style="display:inline;fill:#e5f1f7;fill-opacity:1;stroke-width:0.0755677;stroke-linecap:round;stroke-linejoin:round;stroke-dashoffset:7.63465;paint-order:stroke fill markers"
           d="m 2107.9384,1833.1543 c -17.2622,9.6255 -38.8423,6.4177 -52.5584,-7.8126 -13.7162,-14.2304 -16.1279,-35.9138 -5.8738,-52.8104 10.2541,-16.8965 30.6019,-24.7676 49.5573,-19.1704 l -5.8274,40.1186 -12.7196,5.3521 z"
           sodipodi:nodetypes="csscccc"
           inkscape:export-xdpi="79.199997"
           inkscape:export-ydpi="79.199997" />
        <path
           id="path4706"
           style="fill:#e5f1f7;fill-opacity:1;stroke-width:0.0756986;stroke-linecap:round;stroke-linejoin:round;stroke-dashoffset:7.63465;paint-order:stroke fill markers"
           d="m 2107.2406,1833.5047 c 3.6677,-1.9541 7.0373,-4.4223 10.0066,-7.3298 l -32.9142,-22.1325 z"
           sodipodi:nodetypes="cccc"
           inkscape:export-xdpi="79.199997"
           inkscape:export-ydpi="79.199997" />
        <path
           id="path4708"
           style="fill:#f6b65b;fill-opacity:1;stroke-width:0.0756986;stroke-linecap:round;stroke-linejoin:round;stroke-dashoffset:7.63465;paint-order:stroke fill markers"
           d="m 2089.3237,1801.1744 0.2844,1.2805 c 14.0694,-1.9178 34.7133,-4.0356 40.4802,-12.2344 -0.6073,-5.5016 -2.2562,-10.8374 -4.8586,-15.7226"
           sodipodi:nodetypes="cccc"
           inkscape:export-xdpi="79.199997"
           inkscape:export-ydpi="79.199997" />
        <path
           id="path4710"
           style="fill:#f4a12b;fill-opacity:1;stroke-width:0.0873167;stroke-linecap:round;stroke-linejoin:round;stroke-dashoffset:7.63465;paint-order:stroke fill markers"
           d="m 2080.345,1743.2381 c 14.0467,1.8086 25.2887,3.8812 35.4491,10.7851 9.6689,6.5699 24.1159,24.2244 17.0386,31.7434 -12.4197,13.1947 -27.8316,13.6576 -42.7578,16.5047 5.7161,-21.6677 1.3944,-40.8701 -9.7299,-59.0332 z"
           sodipodi:nodetypes="csscc"
           inkscape:export-xdpi="79.199997"
           inkscape:export-ydpi="79.199997" />
        <path
           id="path4712"
           style="fill:#f9cb8b;fill-opacity:1;stroke-width:0.0756986;stroke-linecap:round;stroke-linejoin:round;stroke-dashoffset:7.63465;paint-order:stroke fill markers"
           d="m 2130.3513,1794.7902 c -13.3106,6.7463 -28.8496,6.0846 -43.3663,8.8212 14.2748,-0.7935 27.9868,2.2673 43.0986,-3.778 0.1866,-1.6745 0.276,-3.3584 0.2677,-5.0432 z"
           sodipodi:nodetypes="cccc"
           inkscape:export-xdpi="79.199997"
           inkscape:export-ydpi="79.199997" />
        <circle
           style="fill:#09385d;fill-opacity:1;stroke-width:0.0138781;stroke-linecap:round;stroke-linejoin:round;stroke-dashoffset:7.63465;paint-order:stroke fill markers"
           id="circle4714"
           r="7.9969907"
           cy="2565.3472"
           cx="997.74268"
           transform="rotate(-28.045289)"
           inkscape:export-xdpi="79.199997"
           inkscape:export-ydpi="79.199997" />
        <path
           id="path4716"
           style="fill:#fbe1bc;fill-opacity:1;stroke-width:0.0756986;stroke-linecap:round;stroke-linejoin:round;stroke-dashoffset:7.63465;paint-order:stroke fill markers"
           d="m 2129.6201,1802.9603 c -15.2661,3.1871 -28.922,1.592 -42.9509,1.1048 13.5599,2.321 26.8021,5.5671 41.4275,4.7848 0.6442,-1.9254 1.1533,-3.8934 1.5234,-5.8896 z"
           sodipodi:nodetypes="cccc"
           inkscape:export-xdpi="79.199997"
           inkscape:export-ydpi="79.199997" />
        <circle
           style="fill:#e5f1f7;fill-opacity:1;stroke-width:0.00939897;stroke-linecap:round;stroke-linejoin:round;stroke-dashoffset:7.63465;paint-order:stroke fill markers"
           id="circle4718"
           r="5.4159799"
           cy="2565.3472"
           cx="997.74268"
           transform="rotate(-28.045289)"
           inkscape:export-xdpi="79.199997"
           inkscape:export-ydpi="79.199997" />
        <path
           id="path4730"
           style="fill:url(#linearGradient4742);fill-opacity:1;stroke-width:0.0756986;stroke-linecap:round;stroke-linejoin:round;stroke-dashoffset:7.63465;paint-order:stroke fill markers"
           d="m 2086.1897,1804.6573 31.9779,20.5895 c 1.7575,-1.8268 3.3524,-3.8033 4.7666,-5.9071 -13.1501,-4.3137 -24.7569,-9.6206 -36.7445,-14.6824 z m 0.1731,-0.2609 c 12.4616,4.6516 24.7943,9.6401 37.6551,13.2478 1.1622,-1.9147 2.1753,-3.916 3.0303,-5.9862 -14.5582,-0.5173 -27.4389,-4.2387 -40.6854,-7.2616 z"
           inkscape:export-xdpi="79.199997"
           inkscape:export-ydpi="79.199997" />
      </g>
    </g>
    <text
       xml:space="preserve"
       style="font-style:normal;font-weight:normal;font-size:50.8px;line-height:1.25;font-family:sans-serif;fill:#000000;fill-opacity:1;stroke:none;stroke-width:0.264583"
       x="-32.605835"
       y="288.41599"
       id="text1005"><tspan
         sodipodi:role="line"
         id="tspan1003"
         x="-32.605835"
         y="288.41599"
         style="font-style:normal;font-variant:normal;font-weight:bold;font-stretch:normal;font-size:50.8px;font-family:Arial;-inkscape-font-specification:'Arial Bold';stroke-width:0.264583">Export to .blend</tspan></text>
  </g>
</svg>
